<?xml version="1.0" encoding="UTF-8"?>
<svg width="128" height="128" viewBox="0 0 128 128" fill="none" xmlns="http://www.w3.org/2000/svg" role="img" aria-labelledby="title desc">
  <title id="title">ZuBlock</title>
  <desc id="desc">Purple shield logo with a white Z-shaped lightning mark.</desc>
  <defs>
    <linearGradient id="shield" x1="31" y1="15" x2="101" y2="111" gradientUnits="userSpaceOnUse">
      <stop stop-color="#C084FC"/>
      <stop offset="0.48" stop-color="#7C3AED"/>
      <stop offset="1" stop-color="#4C1D95"/>
    </linearGradient>
    <linearGradient id="edge" x1="23" y1="12" x2="107" y2="116" gradientUnits="userSpaceOnUse">
      <stop stop-color="#F5F3FF"/>
      <stop offset="1" stop-color="#DDD6FE"/>
    </linearGradient>
    <filter id="shadow" x="13" y="8" width="104" height="118" color-interpolation-filters="sRGB">
      <feDropShadow dx="0" dy="8" stdDeviation="6" flood-color="#000000" flood-opacity="0.28"/>
    </filter>
  </defs>
  <path d="M64 13C80.2 24.3 91.7 28.2 111 28.2V69.9C111 94.6 96.4 109.7 64 119C31.6 109.7 17 94.6 17 69.9V28.2C36.3 28.2 47.8 24.3 64 13Z" fill="#171320"/>
  <g filter="url(#shadow)">
    <path d="M64 19C78.2 28.9 88.2 32.3 105 32.3V69.5C105 91.9 91.9 105.4 64 114C36.1 105.4 23 91.9 23 69.5V32.3C39.8 32.3 49.8 28.9 64 19Z" fill="url(#shield)" stroke="url(#edge)" stroke-width="5" stroke-linejoin="round"/>
  </g>
  <path d="M80.2 39L43.6 82.1H64.5L49.4 109L86 62.9H64.9L80.2 39Z" fill="#FFFFFF"/>
  <path d="M80.2 39L43.6 82.1H64.5L49.4 109L86 62.9H64.9L80.2 39Z" fill="#FFFFFF" opacity="0.96"/>
</svg>
